<svg width="642" height="32" viewBox="0 0 642 32" fill="none" xmlns="http://www.w3.org/2000/svg">
<path d="M316.802 20.16C315.816 20.16 314.956 19.9133 314.222 19.42C313.489 18.9133 312.976 18.2133 312.682 17.32C312.442 16.6 312.322 15.7867 312.322 14.88C312.322 13.9333 312.436 13.1333 312.662 12.48C312.956 11.6 313.469 10.9133 314.202 10.42C314.936 9.91333 315.809 9.66 316.822 9.66C317.782 9.66 318.616 9.91333 319.322 10.42C320.042 10.9133 320.556 11.5933 320.862 12.46C321.102 13.14 321.222 13.94 321.222 14.86C321.222 15.7933 321.102 16.6133 320.862 17.32C320.569 18.2133 320.062 18.9133 319.342 19.42C318.622 19.9133 317.776 20.16 316.802 20.16ZM316.802 18.5C317.336 18.5 317.802 18.3533 318.202 18.06C318.602 17.7533 318.889 17.3267 319.062 16.78C319.209 16.2733 319.282 15.6467 319.282 14.9C319.282 14.1533 319.216 13.5333 319.082 13.04C318.909 12.4933 318.622 12.0733 318.222 11.78C317.822 11.4733 317.336 11.32 316.762 11.32C316.216 11.32 315.742 11.4733 315.342 11.78C314.942 12.0733 314.656 12.4933 314.482 13.04C314.336 13.5067 314.262 14.1267 314.262 14.9C314.262 15.6733 314.336 16.3 314.482 16.78C314.642 17.3267 314.922 17.7533 315.322 18.06C315.736 18.3533 316.229 18.5 316.802 18.5ZM328.196 9.72C328.623 9.72 329.009 9.80667 329.356 9.98C329.449 10.02 329.483 10.1 329.456 10.22L329.136 11.72C329.123 11.84 329.043 11.88 328.896 11.84C328.669 11.7467 328.403 11.7 328.096 11.7L327.816 11.72C327.189 11.7467 326.669 11.9667 326.256 12.38C325.856 12.78 325.656 13.3067 325.656 13.96V19.8C325.656 19.9333 325.589 20 325.456 20H323.936C323.803 20 323.736 19.9333 323.736 19.8V10.02C323.736 9.88667 323.803 9.82 323.936 9.82H325.456C325.589 9.82 325.656 9.88667 325.656 10.02V11.08C325.656 11.12 325.663 11.1467 325.676 11.16C325.703 11.16 325.723 11.1467 325.736 11.12C326.336 10.1867 327.156 9.72 328.196 9.72Z" fill="#AAAAAA"/>
<line x1="4.37114e-08" y1="15.5" x2="269" y2="15.5" stroke="#AAAAAA"/>
<line x1="373" y1="15.5" x2="642" y2="15.5" stroke="#AAAAAA"/>
</svg>
